#!OML:ASF F:\VICON\USERDATA\INSTALL\rory3\rory3.ASF
:FULLY-SPECIFIED
:DEGREES
71
root -5.449966882929837 18.08788654168499 -2.4703478542889528 -175.1462006655316 16.7464529375309 -179.93186610554457
lfemur -21.5778157286406 -9.708320843470558 -16.288190688159375
ltibia 19.54198944228775
lfoot 12.587091482128542 -42.95949420526762
ltoes 37.4164630007336
rfemur 7.331704209905412 -5.580082606149092 12.140272056631414
rtibia 27.022369331552106
rfoot 4.236219269897196 -20.28569007050772
rtoes 9.65172772255897
lowerback -7.239312420354419 8.677321932273443 15.029622522074252
upperback -7.4810908161371295 15.19287118184402 11.144969181435915
thorax -4.9990587137775995 7.586025314546362 3.5259233578598934
lowerneck -4.62390447033431 -19.577413323580657 -0.960849639298666
upperneck 18.197975557874447 -30.50232041077564 2.2289667915821143
head 7.484868040147638 -15.040423858983146 -1.5605851029978102
lclavicle -5.0087119518074315e-15 -1.0365742538587249e-14
lhumerus 51.266398478648576 -0.6261579680772016 70.74086938330049
lradius 53.29504001720183
lwrist 46.043783714099405
lhand -18.91280125699827 24.026183471775802
lfingers 7.125020000000001
lthumb -167.32989771799586 -200.27259114034098
rclavicle -4.996400305382946e-15 -1.0190083694175151e-14
rhumerus 87.30944564483485 28.4260866152299 -53.080585776643915
rradius 39.47926613237543
rwrist -3.451918143882068
rhand -12.993853564363562 9.67404673371674
rfingers 7.125020000000001
rthumb 11.651183048743565 -19.993045557355554
72
root -5.367785791200422 18.09619487249105 -2.6278683177529105 -174.9062336078204 13.025730910112578 -179.75818846416928
lfemur -22.527245602906 -11.090465867703486 -15.854077377763737
ltibia 20.23440117939152
lfoot 14.310703979787279 -44.54649191137395
ltoes 37.703390795359624
rfemur 8.313100807959165 -6.618422980321398 13.942682018632642
rtibia 25.296886443974156
rfoot 5.628708627002683 -22.633481412434474
rtoes 12.45417541235079
lowerback -7.631242292080518 9.019576522994797 15.22240025232275
upperback -8.984605030487995 16.081851404606596 9.840566127601432
thorax -5.933023633360417 8.041890418499552 1.9625619817278752
lowerneck -5.222018318082102 -19.838334917871737 -0.48166626376482546
upperneck 16.48766951452572 -30.40202751990131 3.0485607293780648
head 7.065127316446089 -14.879859516013271 -1.2634206454552457
lclavicle -5.015252741026262e-15 -1.0379252395990362e-14
lhumerus 53.99509218224297 1.2715304159103056 70.26358305931006
lradius 57.226272038914686
lwrist 43.43657068336202
lhand -19.405282079325104 24.150168306570258
lfingers 7.125020000000001
lthumb -168.065329487721 -193.9359481073946
rclavicle -5.001196742321759e-15 -1.0194393042103714e-14
rhumerus 93.08579380393579 26.292373477969583 -51.03613069477805
rradius 41.47990975890387
rwrist -1.9692139636787083
rhand -16.702544254286938 12.219951355630926
rfingers 7.125020000000001
rthumb 7.592426233270597 -17.112017222467443
73
root -5.291858185756767 18.09480022674352 -2.795946276231845 -174.5576102782524 9.510211836242423 -179.3944827710596
lfemur -23.43897173317309 -12.550593204723857 -15.361321403195195
ltibia 21.00210377081233
lfoot 16.335208298586288 -45.49925163606288
ltoes 38.67121790865127
rfemur 9.630432380547164 -7.745959231641612 15.696419193389257
rtibia 23.352237791919848
rfoot 7.599050699587683 -24.550480475477904
rtoes 14.388527293062435
lowerback -8.007810891755069 9.31068719027936 15.304071195735256
upperback -10.498996636444051 16.917388223807105 8.54551691760514
thorax -6.834989749083755 8.527417316513597 0.5683628967194687
lowerneck -5.757813286173947 -20.318938279792285 -0.4452757211875288
upperneck 15.168087359724826 -30.177260448625173 3.5373454727037723
head 6.733932761177002 -14.769272561808322 -1.0668796706703902
lclavicle -5.016241704524925e-15 -1.0373696099248797e-14
lhumerus 56.70069076089299 2.4610317423603796 69.43760201520865
lradius 60.999251118780876
lwrist 41.23210137278191
lhand -19.84673249536507 23.92037522705876
lfingers 7.125020000000001
lthumb -169.2644934744462 -193.03753825826556
rclavicle -5.003307194136061e-15 -1.0197476983566402e-14
rhumerus 97.51898164335941 24.201158167612075 -49.7613619017125
rradius 43.66376171464209
rwrist -0.7396313675131623
rhand -20.881058430858236 14.80520250854847
rfingers 7.125020000000001
rthumb 3.2763955559497084 -14.233437285787693
74
root -5.230593680870961 18.094500078624318 -2.946276634537245 -174.34032003488915 6.667265580212657 -179.01185965443284
lfemur -24.275150078799037 -13.980228052561312 -14.721623036878782
ltibia 21.89424857937627
lfoot 17.7997361955713 -46.30300018050628
ltoes 39.536396871381754
rfemur 10.91405832370308 -8.705792086225436 17.234844922259143
rtibia 21.17180450173303
rfoot 10.262998602869365 -26.103301424424245
rtoes 15.728983406420364
lowerback -8.505347966661885 9.699187558722144 15.26306958516131
upperback -11.852950709673635 17.684460455638284 7.341480813754263
thorax -7.467800745240717 9.01340095624858 -0.6362654367627738
lowerneck -6.511698265167837 -20.874361140728034 -0.9921868505256959
upperneck 14.3990748918989 -29.986848434484116 3.88194960270702
head 6.549567323376094 -14.656982437822142 -0.9406660080056648
lclavicle -5.003543118911296e-15 -1.0346201556029298e-14
lhumerus 59.12503704788788 3.462070987313826 68.19312730707054
lradius 64.59534306200614
lwrist 39.44931647005275
lhand -19.957014325457795 23.625351677771707
lfingers 7.125020000000001
lthumb -169.2096728951414 -181.82404898878423
rclavicle -5.002728216665852e-15 -1.0198217327478106e-14
rhumerus 100.81386508139684 22.30372315150965 -49.374751486340784
rradius 46.06293842865035
rwrist 0.22639271667648586
rhand -25.02330937277756 16.87822354081769
rfingers 7.125020000000001
rthumb -0.8061927421066528 -11.601650330313355
75
root -5.196457249609281 18.093649886736607 -3.091010710432389 -174.13767464627912 4.123361147982305 -178.49468295202598
lfemur -25.138413293054846 -15.227411088330786 -13.965379812919208
ltibia 22.78931468708297
lfoot 18.94767364412293 -47.295092151692145
ltoes 39.79835142678826
rfemur 12.20281476960677 -9.799110409178978 18.540629460216532
rtibia 18.78571636924711
rfoot 13.622121397686783 -27.147987842752677
rtoes 16.176135969827648
lowerback -9.03853198221533 10.725276196348721 15.177782590970887
upperback -13.10774480452906 18.370360927154525 6.1074542127346945
thorax -7.899416062818954 9.16805896292555 -1.7542164681542012
lowerneck -6.992745713821417 -21.00434267230399 -1.9114726164999172
upperneck 13.854345265876841 -29.722433742473235 4.205418165186722
head 6.491391037933029 -14.554552723159501 -0.7989512367280464
lclavicle -4.993683805777465e-15 -1.0269316510645337e-14
lhumerus 61.173861320339384 4.758020924042505 66.88867245174369
lradius 67.91169340028137
lwrist 37.18341042948785
lhand -20.52188933949725 23.726507631346617
lfingers 7.125020000000001
lthumb -169.78692882439117 -187.0473508945147
rclavicle -5.0094841893782935e-15 -1.0205014285220733e-14
rhumerus 102.92738709863931 20.78336476899424 -49.5169703449062
rradius 48.316806277508235
rwrist 1.057829931089156
rhand -28.769587083296816 18.939797838139746
rfingers 7.125020000000001
rthumb -4.2797877798115564 -9.209010839025275
76
root -5.169118546641957 18.077971677430224 -3.211105681351901 -173.6816852189151 1.6437476937588187 -177.9729644123509
lfemur -25.871131924472213 -16.47132720725623 -13.469111248837022
ltibia 23.716435884387774
lfoot 19.98750450186253 -47.91015372444528
ltoes 40.475819007828264
rfemur 13.71058429896541 -10.776895153230575 19.61044899500486
rtibia 16.469445774251316
rfoot 17.054125814131933 -27.988465692395252
rtoes 16.369057207474413
lowerback -9.648246405453815 13.05724141807619 15.137609028322805
upperback -14.363028320073633 18.727922631594243 4.639360136546328
thorax -8.075797795811523 8.440500869334238 -2.7349947012607236
lowerneck -7.225067494850652 -21.170532464854627 -3.011808002643887
upperneck 13.511107512575778 -29.49401546651629 4.398658250642101
head 6.462752344189488 -14.41359869150457 -0.6731965016422745
lclavicle -5.0018011411872e-15 -1.0200067318155882e-14
lhumerus 62.93175952476604 5.86760986632806 65.2710702789563
lradius 70.7627893095956
lwrist 33.91793964165174
lhand -21.921853357109292 24.024504585422363
lfingers 7.125020000000001
lthumb -170.43348736379428 -185.9824258439956
rclavicle -5.012690386486364e-15 -1.020830928478928e-14
rhumerus 104.23233719978677 19.81269139939606 -49.966458295571194
rradius 50.132378734218925
rwrist 1.8712230806275194
rhand -32.32745602383261 20.934686050148457
rfingers 7.125020000000001
rthumb -7.420355212713618 -6.675366900195823
77
root -5.14289393459156 18.062799061339103 -3.3260711449160767 -173.4170410752917 -0.4051114409604111 -177.1255025586405
lfemur -26.392330427483273 -17.457612713063316 -13.031953189167599
ltibia 24.757797411852188
lfoot 20.627677665070113 -48.36021210886294
ltoes 40.96979137635833
rfemur 15.337257401106298 -11.267438596940144 20.63544819760669
rtibia 14.273488561623008
rfoot 20.706147051138803 -28.577633893235756
rtoes 16.713506164507187
lowerback -9.989475213725925 13.25932863736186 15.066429256539475
upperback -15.213946465706199 19.134425992982653 3.8373617441099825
thorax -8.330402225750099 8.565117029217815 -3.2853148455439687
lowerneck -7.1551927498536 -21.295687337515485 -4.102861047150027
upperneck 13.303055524399465 -29.323782481839817 4.496686298100687
head 6.469594175710371 -14.282304563497632 -0.5828375294006101
lclavicle -4.9951224763085145e-15 -1.0189909909879283e-14
lhumerus 64.23636582720887 6.703825146353722 64.3179749130056
lradius 73.24867099380046
lwrist 31.347264481912283
lhand -22.796448073462518 24.270177739269535
lfingers 7.125020000000001
lthumb -170.69503927314253 -200.47901766364953
rclavicle -5.012971516546945e-15 -1.0208452781536935e-14
rhumerus 104.67327062747628 18.852227071642453 -50.50126852246241
rradius 51.450232972502974
rwrist 2.4455890539711014
rhand -35.86069534426593 22.38547504808923
rfingers 7.125020000000001
rthumb -10.516044101997606 -4.06664211929675
78
root -5.1188771226762535 18.04612349930727 -3.4167700643192997 -172.94791004868668 -2.4038230417802993 -176.65713014090926
lfemur -26.940249894043713 -18.300157445967812 -12.608899825869802
ltibia 25.89919714901849
lfoot 21.317011044840307 -48.70180021588003
ltoes 41.79465629151832
rfemur 16.632030213623636 -11.517683394439238 21.452181561400508
rtibia 12.319099170703915
rfoot 24.040093455929682 -29.144318003459645
rtoes 17.474704722395536
lowerback -10.580578019956011 15.162568355962552 14.749360848017021
upperback -16.169221463439353 18.999608431022093 2.7445906524703365
thorax -8.42921458471003 7.506079991776877 -3.894616070102635
lowerneck -7.116533987457747 -21.473107154093853 -4.8047926850141724
upperneck 13.639422386746741 -29.39337878487703 4.31920061062666
head 6.575771839447691 -14.309135038678049 -0.581370182688198
lclavicle -4.997128897234078e-15 -1.0186030438675814e-14
lhumerus 65.41717449662939 7.491606283081012 63.83093789690865
lradius 75.25096598032385
lwrist 28.740889018945076
lhand -23.424502247153015 24.682481982319942
lfingers 7.125020000000001
lthumb -170.94141850535306 -209.10269202443777
rclavicle -5.011719686466024e-15 -1.0206650735916452e-14
rhumerus 104.80623266675653 18.05613318092014 -50.890390404220824
rradius 52.28059437372556
rwrist 2.6397298488246896
rhand -39.16845605161879 23.90626007592977
rfingers 7.125020000000001
rthumb -13.329676280657232 -1.7695173225289498
